<svg width="122" height="32" viewBox="0 0 122 32" fill="none" xmlns="http://www.w3.org/2000/svg">
<path fill-rule="evenodd" clip-rule="evenodd" d="M3.08044 27.4168C3.3441 27.6546 4.14306 28.0573 4.49223 28.2558L8.73444 30.6795C9.20081 30.95 9.68035 31.2191 10.149 31.486C11.0291 31.9874 10.8824 32.0079 11.2999 31.0876C11.7658 30.0604 12.2186 29.066 12.6886 28.0456C13.5446 26.1865 13.6267 26.4115 12.5738 26.1289L6.43103 24.4831C5.40612 24.2096 5.72391 24.2082 5.05305 24.9425L3.50292 26.7196C3.28315 26.9666 3.06207 27.1422 3.08028 27.4168H3.08044Z" fill="#E33449"/>
<path fill-rule="evenodd" clip-rule="evenodd" d="M21.2773 20.8685C21.0349 20.8481 20.8008 21.1112 20.6319 21.2461L16.7369 24.3682C16.3598 24.6747 16.0038 24.9586 15.6156 25.2691C14.7868 25.9318 14.6045 25.9591 15.1585 26.2108C16.09 26.6343 16.9952 27.0496 17.9168 27.4604L21.4119 29.0497C22.4646 29.5494 22.4407 29.5542 22.3386 28.7627L21.7762 24.3387C21.7082 23.7991 21.4458 21.1149 21.2773 20.8687V20.8685Z" fill="#E33449"/>
<path fill-rule="evenodd" clip-rule="evenodd" d="M28.3251 21.291C28.4517 21.1272 28.2786 20.4286 28.2438 20.1895L27.434 14.6783C27.197 13.1744 27.7742 13.2481 24.5179 14.6045C23.4693 15.0413 23.7385 14.7825 23.3135 15.9365C23.1209 16.4598 21.9829 19.3711 22.0274 19.6876C22.3429 19.8442 26.9523 21.0143 27.9241 21.2968C27.968 21.3096 28.0896 21.345 28.1302 21.3471C28.2968 21.3559 28.2313 21.3715 28.3249 21.291H28.3251Z" fill="#9A1E32"/>
<path fill-rule="evenodd" clip-rule="evenodd" d="M20.2953 19.3309C20.4062 19.116 20.2142 18.9933 19.9786 18.7165C19.8201 18.5301 19.6894 18.3778 19.5412 18.2031C19.238 17.8458 18.9612 17.5243 18.6658 17.1773L15.1249 13.034C14.6106 12.45 14.5867 12.361 14.2344 13.1372C14.0348 13.5771 13.8448 13.9924 13.6396 14.4411C13.2329 15.3309 12.8405 16.1992 12.4383 17.0763C11.6982 18.6904 11.5711 18.645 12.4778 18.7202C12.78 18.7453 13.0559 18.7768 13.3539 18.8019L18.6504 19.2971C18.9383 19.3216 19.214 19.3488 19.5088 19.3797C19.7606 19.4061 20.1453 19.5123 20.2951 19.3311L20.2953 19.3309Z" fill="#E33449"/>
<path fill-rule="evenodd" clip-rule="evenodd" d="M23.577 29.052C23.6853 28.8874 23.7646 28.7675 23.8786 28.6003L27.5336 23.0714C27.6529 22.8903 28.0749 22.3348 28.0749 22.1266C27.9015 21.9773 24.3633 21.0789 23.6421 20.8856C23.3454 20.806 22.3676 20.4804 22.1246 20.5559C22.0633 20.7597 23.0364 29.1629 23.1495 29.4132C23.4129 29.4533 23.4481 29.2475 23.577 29.0521V29.052Z" fill="#EB7782"/>
<path fill-rule="evenodd" clip-rule="evenodd" d="M11.7707 31.9692C12.0065 32.0763 12.7289 31.873 13.029 31.8208L16.7913 31.1293C17.5004 30.9987 21.4924 30.3415 21.7639 30.1723L21.7613 29.9565C21.5646 29.8225 20.461 29.3604 20.1341 29.2089C18.5582 28.4786 16.8679 27.7751 15.2768 27.0392C13.9643 26.4321 14.1427 26.487 13.8684 27.085L12.4071 30.2913C12.2665 30.5984 11.6803 31.6925 11.7705 31.9692H11.7707Z" fill="#9A1E32"/>
<path fill-rule="evenodd" clip-rule="evenodd" d="M12.9608 22.3575C13.1131 22.8393 13.8607 25.4095 14.0233 25.5911C14.2736 25.6011 14.3609 25.4544 14.5176 25.325L19.8411 20.9755C20.1783 20.6982 20.5552 20.4873 20.5432 20.2414C20.3771 20.0686 19.9203 20.0923 19.6148 20.0649L12.6676 19.4689C12.1596 19.4215 12.0238 19.404 12.1944 19.9228C12.2826 20.1916 12.3641 20.4608 12.4479 20.7296C12.6224 21.289 12.7872 21.8081 12.9608 22.3575Z" fill="#E33449"/>
<path fill-rule="evenodd" clip-rule="evenodd" d="M22.4325 13.9559C22.5762 13.7099 22.2577 13.1765 22.0825 12.7695C21.9069 12.3621 21.7232 11.9468 21.5592 11.5528C21.22 10.7373 20.8625 9.93001 20.5135 9.11856C20.2038 8.39821 20.33 8.56643 19.5361 8.35266L16.7676 7.61267C16.4595 7.58305 16.322 8.15981 16.0883 8.66172C15.7197 9.45241 15.3532 10.226 15.0074 11.0264C14.8715 11.3411 15.0479 11.3878 15.3044 11.476C15.5183 11.5494 15.7371 11.6305 15.9472 11.7068C16.3822 11.8649 16.7926 12.0107 17.2317 12.1696L21.0855 13.558C21.3776 13.6628 22.1438 14.014 22.4325 13.9557V13.9559Z" fill="#EB7782"/>
<path fill-rule="evenodd" clip-rule="evenodd" d="M0.195923 18.6522C0.281427 18.8378 3.79847 21.7756 4.03109 21.9703C5.44223 23.152 5.37298 23.4077 5.41248 21.6896L5.64575 14.8544C5.65323 14.6803 5.75304 14.1515 5.47848 14.1739C5.34324 14.1848 4.15219 15.2219 4.00264 15.3459L1.08884 17.7836C0.81087 18.0238 0.23136 18.4118 0.195923 18.6524V18.6522Z" fill="#9A1E32"/>
<path fill-rule="evenodd" clip-rule="evenodd" d="M7.9721 8.58204C7.67787 8.68233 3.4581 10.7685 3.04732 10.9675C2.32184 11.319 2.69279 11.3705 3.35504 11.7561C3.63106 11.9169 5.5601 13.0556 5.70949 13.0664C5.85222 13.0767 9.85335 12.1321 10.19 12.0548C10.6933 11.9394 11.1813 11.829 11.6774 11.7137C11.9285 11.6555 12.1686 11.5975 12.4266 11.5423C12.6852 11.4871 13.0568 11.3701 12.6594 11.1363C11.8889 10.683 11.1104 10.2627 10.3334 9.8154L8.59127 8.81819C8.39832 8.70599 8.16261 8.51701 7.97177 8.58188L7.9721 8.58204Z" fill="#9A1E32"/>
<path fill-rule="evenodd" clip-rule="evenodd" d="M8.66571 7.63505C8.86094 7.6513 14.7147 6.98295 14.827 6.94126C15.2201 6.79558 14.592 6.3843 14.2271 6.07701L12.3809 4.51397C12.1312 4.32741 8.12457 2.93243 7.36462 2.66103C6.10287 2.21031 6.23275 2.07735 7.6026 5.26507C7.78434 5.68794 8.48154 7.40566 8.66571 7.63505Z" fill="#E33449"/>
<path fill-rule="evenodd" clip-rule="evenodd" d="M6.78087 13.633C6.75974 13.8632 6.82054 13.8902 6.94034 14.0027L10.8238 17.8455C11.302 18.3371 11.336 17.8139 11.9002 16.5836L13.2626 13.5961C13.3847 13.3299 13.4795 13.114 13.5952 12.8616C13.668 12.7026 13.952 12.2189 13.8247 12.0746C13.6721 11.9014 12.3268 12.2977 12.0551 12.3579C11.1853 12.5511 7.02991 13.4538 6.78087 13.633Z" fill="#EB7782"/>
<path fill-rule="evenodd" clip-rule="evenodd" d="M6.46829 14.5623C6.28168 14.7658 6.33759 15.6746 6.3228 16.0564L6.15748 20.7862C6.13342 21.3253 6.1214 21.8585 6.10075 22.3982C6.0923 22.6149 6.01541 23.0582 6.31858 22.9632C6.42749 22.9289 8.28712 21.226 8.48999 21.0515L10.2266 19.4985C10.7698 18.9771 10.9711 19.0215 10.5899 18.6294C10.3101 18.3417 10.0942 18.1012 9.78799 17.8068C9.50255 17.5324 9.2488 17.2457 8.97278 16.9579L7.34576 15.2963C7.05463 14.9919 6.73829 14.5499 6.46813 14.5623H6.46829Z" fill="#E33449"/>
<path fill-rule="evenodd" clip-rule="evenodd" d="M13.1168 25.4327C13.2575 25.2488 12.5615 23.4106 12.4558 23.0883C12.2016 22.3131 11.9462 21.5454 11.6926 20.7719C11.6271 20.5722 11.5616 20.3734 11.4974 20.1783C11.2451 19.4101 11.2645 19.526 10.3426 20.3233L7.08077 23.2048C6.6565 23.5918 6.35057 23.7443 7.06061 23.9326L10.7318 24.9129C11.138 25.0237 11.5541 25.1305 11.9579 25.2411C12.1619 25.297 12.3378 25.3412 12.5566 25.4002C12.7613 25.4552 12.9771 25.5724 13.1164 25.4325L13.1168 25.4327Z" fill="#9A1E32"/>
<path fill-rule="evenodd" clip-rule="evenodd" d="M22.1485 17.0699C22.2784 16.7177 22.3998 16.3871 22.531 16.0283C22.6191 15.7871 22.8969 15.1912 22.8558 14.957C22.6335 14.8018 19.3418 13.6626 18.793 13.4643C18.518 13.365 15.8574 12.3246 15.691 12.4457C15.4944 12.5885 15.9598 12.9976 16.1559 13.236C16.578 13.7499 16.9955 14.2197 17.4329 14.7316L20.6232 18.4729C20.9105 18.7999 21.0912 19.1405 21.3674 19.1278C21.5261 18.9046 22.004 17.462 22.1486 17.0701L22.1485 17.0699Z" fill="#E33449"/>
<path fill-rule="evenodd" clip-rule="evenodd" d="M2.62976 21.6621C2.21085 21.3142 1.80967 20.9743 1.40832 20.624C1.18042 20.425 1.01006 20.2879 0.789145 20.0939C0.546938 19.8811 0.356911 19.6475 0.143963 19.7261C0.076828 19.9711 0.466148 20.8675 0.565957 21.1455C0.798248 21.7933 2.44916 26.4713 2.51938 26.5461C2.68958 26.7277 2.88611 26.384 2.99778 26.2591L4.26897 24.7972C4.40893 24.6328 5.09345 23.907 5.07101 23.7782C5.05443 23.6837 2.88595 21.8749 2.6296 21.6621H2.62976Z" fill="#EB7782"/>
<path fill-rule="evenodd" clip-rule="evenodd" d="M16.8603 6.90198C17.1384 7.01692 19.81 7.7231 19.9856 7.70668C20.0997 7.65179 21.4125 3.9385 21.6415 3.31892C21.6903 3.18693 21.9847 2.65379 21.7153 2.61821C21.6316 2.60711 21.087 2.84728 20.9762 2.8938C20.487 3.09968 20.0363 3.2893 19.5494 3.49358C18.2378 4.04362 18.4328 4.09963 17.5757 5.56447C17.4476 5.78339 16.8543 6.70447 16.8603 6.90198Z" fill="#E33449"/>
<path fill-rule="evenodd" clip-rule="evenodd" d="M0.0561855 17.6222C0.234183 17.6557 0.300181 17.61 0.392675 17.5274L3.84307 14.6357C5.30363 13.4247 5.30298 13.618 4.30896 13.0609C1.95499 11.7416 2.13949 11.532 1.76074 12.5727L0.4312 16.1857C0.339357 16.436 0.259705 16.6548 0.16656 16.9076C0.0625251 17.1897 -0.080361 17.3802 0.0561855 17.6222Z" fill="#E33449"/>
<path fill-rule="evenodd" clip-rule="evenodd" d="M14.1557 11.0934C14.3076 10.9873 14.4603 10.5311 14.5612 10.3065C14.6955 10.0082 14.8147 9.75456 14.9449 9.46336C15.0536 9.21997 15.6759 7.9417 15.6933 7.79618C15.7363 7.43657 15.0032 7.64744 14.783 7.6703L10.3686 8.17253C10.162 8.19555 9.39718 8.17382 9.516 8.49206C9.57404 8.64723 12.8404 10.4411 13.3448 10.7358C13.5571 10.8599 13.9634 11.1648 14.1557 11.0935V11.0934Z" fill="#E33449"/>
<path fill-rule="evenodd" clip-rule="evenodd" d="M15.262 0.242279L14.655 1.0935C14.4508 1.39161 14.2602 1.66172 14.0584 1.96113L12.8828 3.67644C12.7134 4.0272 13.0673 4.1901 13.4119 4.47904L15.6142 6.28047C15.6674 6.32377 15.6752 6.33231 15.7168 6.37126L15.809 6.45464C15.815 6.45996 15.8261 6.46978 15.8356 6.47621C16.185 6.83856 16.3114 6.35629 16.5021 6.03757L17.5508 4.2363C17.8861 3.68111 17.8721 3.72763 17.5647 3.20496C17.1949 2.5762 16.862 1.99896 16.5026 1.38035C16.434 1.26235 15.7773 0.0990149 15.6968 0.0447676C15.5032 -0.0857801 15.309 0.0959565 15.2621 0.242118L15.262 0.242279Z" fill="#EB7782"/>
<path fill-rule="evenodd" clip-rule="evenodd" d="M26.651 12.9386C26.6806 12.6066 26.5002 12.5973 26.0618 12.2987L22.2947 9.75955C21.9236 9.50746 21.1596 8.86921 21.5567 9.78079L23.2572 13.7355C23.5397 14.4002 23.6278 14.2201 24.8775 13.6964L26.651 12.9386Z" fill="#E33449"/>
<path d="M35.6125 25.6368L41.1041 13.4358H43.9203L49.4297 25.6368H46.4373L41.9313 14.8652H43.0578L38.5342 25.6368H35.6123H35.6125ZM38.3582 23.0223L39.115 20.8785H45.4515L46.2259 23.0223H38.358H38.3582ZM50.7143 25.6368V13.4358H53.0729L60.3423 22.2205H59.1983V13.4358H62.0145V25.6368H59.6736L52.3865 16.8521H53.5306V25.6368H50.7143ZM70.9206 25.8461C69.9467 25.8461 69.046 25.6891 68.2188 25.3754C67.3915 25.0616 66.6756 24.6201 66.0714 24.0506C65.4672 23.4812 64.9977 22.8132 64.6634 22.0462C64.3288 21.2791 64.1617 20.4426 64.1617 19.5363C64.1617 18.63 64.329 17.7933 64.6634 17.0264C64.9977 16.2596 65.4701 15.5914 66.0802 15.022C66.6904 14.4527 67.4062 14.0111 68.2276 13.6974C69.049 13.3837 69.9409 13.2267 70.9029 13.2267C71.8769 13.2267 72.7716 13.3837 73.5872 13.6974C74.4027 14.0111 75.1126 14.4527 75.717 15.022C76.3212 15.5914 76.7936 16.2567 77.134 17.0177C77.4742 17.7788 77.6444 18.6184 77.6444 19.5363C77.6444 20.4426 77.4742 21.2822 77.134 22.0549C76.7936 22.8275 76.3213 23.4957 75.717 24.0593C75.1126 24.6228 74.4027 25.0615 73.5872 25.3752C72.7716 25.6889 71.8828 25.8459 70.9206 25.8459V25.8461ZM70.9029 23.4408C71.4544 23.4408 71.9619 23.3478 72.4255 23.1619C72.889 22.9759 73.2968 22.7087 73.6488 22.3601C74.0009 22.0114 74.2736 21.599 74.4672 21.1227C74.6608 20.6462 74.7577 20.1176 74.7577 19.5365C74.7577 18.9555 74.6608 18.4267 74.4672 17.9502C74.2736 17.4738 74.0038 17.0614 73.6576 16.7127C73.3113 16.3642 72.9036 16.0968 72.4343 15.9109C71.9649 15.725 71.4546 15.6321 70.9029 15.6321C70.3513 15.6321 69.844 15.7251 69.3804 15.9109C68.917 16.0968 68.5091 16.3642 68.1572 16.7127C67.8051 17.0614 67.5323 17.4738 67.3387 17.9502C67.1451 18.4267 67.0482 18.9554 67.0482 19.5365C67.0482 20.1058 67.1451 20.6315 67.3387 21.1138C67.5323 21.5961 67.8021 22.0114 68.1484 22.3601C68.4946 22.7087 68.9023 22.9759 69.3716 23.1619C69.8409 23.3478 70.3513 23.4408 70.9029 23.4408ZM79.7916 25.6369V13.436H85.1249C86.2278 13.436 87.1783 13.6132 87.9762 13.9675C88.7742 14.322 89.3903 14.8303 89.8245 15.4927C90.2587 16.1551 90.4757 16.9453 90.4757 17.8632C90.4757 18.7696 90.2585 19.5509 89.8245 20.2075C89.3903 20.864 88.7742 21.3665 87.9762 21.7152C87.1783 22.0639 86.2278 22.2382 85.1249 22.2382H81.3757L82.6431 21.0007V25.6369H79.7916ZM87.6241 25.6369L84.5439 21.2098H87.5889L90.7044 25.6369H87.6241ZM82.643 21.3144L81.3755 19.9896H84.9662C85.8463 19.9896 86.5035 19.8008 86.9375 19.4231C87.3717 19.0455 87.5887 18.5256 87.5887 17.8632C87.5887 17.1892 87.3715 16.6663 86.9375 16.2945C86.5033 15.9227 85.8463 15.7367 84.9662 15.7367H81.3755L82.643 14.3947V21.3144Z" fill="#E33449"/>
<path d="M92.1833 21.8195V19.6408H97.1645V21.8195H92.1833ZM99.5232 25.6366V13.4356H104.856C105.959 13.4356 106.91 13.6129 107.708 13.9672C108.506 14.3216 109.122 14.83 109.556 15.4924C109.99 16.1548 110.207 16.945 110.207 17.8628C110.207 18.7693 109.99 19.5506 109.556 20.2072C109.122 20.8637 108.506 21.3662 107.708 21.7149C106.91 22.0635 105.959 22.2379 104.856 22.2379H101.107L102.375 21.0003V25.6366H99.5232ZM107.356 25.6366L104.276 21.2094H107.32L110.436 25.6366H107.356ZM102.375 21.3141L101.107 19.9893H104.698C105.578 19.9893 106.235 19.8005 106.669 19.4228C107.103 19.0452 107.32 18.5252 107.32 17.8628C107.32 17.1889 107.103 16.666 106.669 16.2942C106.235 15.9223 105.578 15.7364 104.698 15.7364H101.107L102.375 14.3944V21.3141ZM115.083 18.3509H121.015V20.547H115.083V18.3509ZM115.294 23.3708H122V25.6366H112.46V13.4356H121.771V15.7015H115.294V23.3706V23.3708Z" fill="#E33449"/>
</svg>
