<svg width="166" height="39" viewBox="0 0 166 39" fill="none" xmlns="http://www.w3.org/2000/svg">
<path fill-rule="evenodd" clip-rule="evenodd" d="M52.6794 37.293C63.7683 29.1747 63.3999 12.4402 54.0065 2.90028C53.9326 2.82688 53.8296 2.82688 53.7412 2.88581C53.6673 2.94423 53.6528 3.06158 53.697 3.14946C58.9168 10.7989 55.6139 22.8445 46.0436 17.569C40.0123 14.2568 36.8864 8.6592 32.0494 4.32192C28.5692 1.20052 24.6468 -0.939171 21.2556 1.6694C10.3582 10.0514 10.5642 26.5811 20.0165 36.1061C20.0903 36.1795 20.2084 36.1795 20.2823 36.1206C20.3556 36.0621 20.3853 35.9448 20.3265 35.8569C14.8997 27.8415 18.5276 16.1913 27.9356 21.379C30.2948 22.6683 33.7157 25.6289 38.6265 31.2265C42.1212 35.2123 47.5626 41.0446 52.6794 37.293Z" fill="#7A88A6"/>
<path d="M48.2115 8.10258C50.5706 10.403 52.2077 13.4366 52.7826 16.8216C54.5081 15.5028 55.0829 12.9677 55.0533 10.9159C55.0091 8.39569 54.1538 5.93394 52.7383 3.83819L48.2115 8.10258ZM37.0191 5.66977C44.274 5.31824 50.2169 10.5793 50.8068 17.6125C50.1727 17.8328 49.4647 17.7594 48.6833 17.4957C46.7367 16.8655 44.6574 15.1952 43.1389 13.876C41.1038 12.1028 39.2311 10.1394 37.3729 8.17599C36.6503 7.399 35.9428 6.637 35.2052 5.87501C35.7951 5.77265 36.3996 5.69924 37.0191 5.66977ZM38.7442 33.1606C38.1839 33.249 37.6091 33.3074 37.0191 33.3369C29.7643 33.6005 23.8063 28.281 23.2169 21.2473C23.644 21.1299 24.1309 21.1589 24.6615 21.2762C26.2841 21.6572 28.0533 22.8736 29.3361 23.8698C32.433 26.2587 35.1313 29.2043 37.7563 32.091C38.0809 32.4425 38.405 32.8091 38.7442 33.1606ZM25.7826 30.8601C23.4083 28.5591 21.7567 25.5261 21.1818 22.1411C19.4563 23.4454 18.8815 25.995 18.9257 28.0318C18.9699 30.567 19.8251 33.0288 21.2557 35.1245L25.7826 30.8601Z" fill="#7A88A6"/>
<path fill-rule="evenodd" clip-rule="evenodd" d="M147.541 5.58192H134.712C131.158 5.58192 128.253 8.46861 128.253 12.0005V18.5214C128.253 22.0532 131.158 24.9399 134.712 24.9399H147.541C151.08 24.9399 154 22.0532 154 18.5214V12.0005C154 8.46861 151.08 5.58192 147.541 5.58192ZM69.0034 24.9399V5.58192H77.1728L86.6838 18.3311H88.2913V5.58192H94.7356V24.9399H86.5512L77.0402 12.1912H75.4327V24.9399H69.0034ZM108.965 13.3192H124.361V17.2026H108.965V13.3192ZM105.058 21.0271L124.36 21.071V24.9399H98.6284V5.58192H124.36V9.45083H105.058V21.0271ZM145.27 9.45083L136.968 9.49478C135.715 9.49478 134.698 10.5054 134.698 11.7513V18.8C134.698 20.0454 135.715 21.071 136.968 21.071H145.285C146.539 21.071 147.556 20.0454 147.556 18.8V11.7513C147.556 10.5054 146.524 9.45083 145.27 9.45083Z" fill="#7A88A6"/>
<path d="M81.4491 29.3065C81.4491 29.1891 81.4933 29.0868 81.5818 29.0134C81.6702 28.9255 81.7586 28.8815 81.8918 28.8815H82.1426C82.1717 28.8815 82.2159 28.8965 82.2456 28.9255C82.2601 28.955 82.2747 28.9839 82.2747 29.0278V32.8823C82.2747 32.9846 82.2456 33.087 82.1571 33.1604C82.0687 33.2483 81.9802 33.2922 81.8622 33.2922H81.4491C81.3165 33.2922 81.1687 33.2483 81.0511 33.1749C80.7858 32.9996 80.2844 32.6771 79.5764 32.2082C78.8538 31.7243 78.1016 31.2409 77.3348 30.7426C76.5685 30.2298 76.067 29.9072 75.8163 29.7464C75.7866 29.717 75.7721 29.717 75.7575 29.7314C75.7273 29.7464 75.7127 29.7754 75.7127 29.7904V32.8823C75.7127 32.9846 75.6685 33.087 75.5952 33.1604C75.5067 33.2483 75.4032 33.2922 75.2851 33.2922H75.0198C74.9756 33.2922 74.9465 33.2778 74.9314 33.2483C74.9017 33.2338 74.8872 33.2044 74.8872 33.1604V29.3065C74.8872 29.1891 74.9314 29.0868 75.0198 29.0134C75.0937 28.9255 75.1967 28.8815 75.3002 28.8815H75.6836C75.8459 28.8815 75.9781 28.9255 76.1112 29.0134L81.3461 32.4424C81.3752 32.4573 81.4049 32.4573 81.4195 32.4424C81.4491 32.4279 81.4491 32.4134 81.4491 32.3839V29.3065ZM69.6372 29.3065C69.6372 29.1891 69.6819 29.0868 69.7704 29.0134C69.8437 28.9255 69.9473 28.8815 70.0653 28.8815H70.3161C70.3603 28.8815 70.3894 28.8965 70.4191 28.9255C70.4487 28.955 70.4633 28.9839 70.4633 29.0278V32.8823C70.4633 32.9846 70.4191 33.087 70.3452 33.1604C70.2568 33.2483 70.1538 33.2922 70.0357 33.2922H69.7849C69.7407 33.2922 69.7116 33.2778 69.6819 33.2483C69.6523 33.2338 69.6372 33.2044 69.6372 33.1604V29.3065Z" fill="#7A88A6"/>
<path d="M92.6267 29.3504C92.6267 29.4678 92.597 29.5557 92.5086 29.6435C92.4201 29.717 92.3171 29.7609 92.2136 29.7609H86.5662C86.4481 29.7609 86.3446 29.8193 86.2562 29.9217C86.1677 30.0245 86.1381 30.1564 86.1381 30.2737C86.1381 30.4055 86.1677 30.4934 86.2562 30.5813C86.3446 30.6692 86.4481 30.7281 86.5662 30.7281H91.373C91.7418 30.7281 92.0518 30.8455 92.3171 31.0797C92.5679 31.3138 92.7005 31.6075 92.7005 31.9735C92.7005 32.34 92.5679 32.6476 92.3171 32.9112C92.0518 33.1604 91.7272 33.2922 91.373 33.2922H85.519C85.4748 33.2922 85.4452 33.2778 85.416 33.2488C85.4009 33.2338 85.3864 33.2044 85.3864 33.1604V32.8383C85.3864 32.721 85.416 32.6181 85.5045 32.5302C85.5778 32.4573 85.6813 32.4134 85.7989 32.4134H91.4323C91.5503 32.4134 91.6533 32.3689 91.7569 32.2811C91.8453 32.1937 91.8744 32.0908 91.8744 31.9735C91.8744 31.8417 91.8453 31.7538 91.7569 31.6659C91.6533 31.578 91.5503 31.5341 91.4323 31.5341H86.6396C86.2562 31.5341 85.9466 31.4167 85.6959 31.1675C85.4306 30.9334 85.3125 30.6402 85.3125 30.2737C85.3125 30.0395 85.3718 29.8193 85.4894 29.5996C85.6075 29.3799 85.7698 29.2041 85.9763 29.0868C86.1677 28.955 86.4039 28.8815 86.6396 28.8815H92.494C92.5382 28.8815 92.5679 28.8965 92.597 28.9255C92.6121 28.955 92.6267 28.9844 92.6267 29.0278V29.3504Z" fill="#7A88A6"/>
<path d="M102.153 29.3065C102.153 29.1891 102.197 29.0868 102.285 29.0134C102.374 28.9255 102.463 28.8815 102.58 28.8815H102.831C102.875 28.8815 102.919 28.8965 102.949 28.9255C102.964 28.955 102.978 28.9839 102.978 29.0278V31.182C102.978 31.7682 102.787 32.2666 102.374 32.6771C101.961 33.087 101.46 33.2922 100.855 33.2922H97.699C97.1096 33.2922 96.6227 33.087 96.2101 32.6771C95.7971 32.2666 95.5906 31.7682 95.5906 31.182V29.3065C95.5906 29.1891 95.6202 29.0868 95.7087 29.0134C95.7971 28.9255 95.8855 28.8815 96.0036 28.8815H96.2689C96.2986 28.8815 96.3428 28.8965 96.3719 28.9255C96.4016 28.955 96.4167 28.9839 96.4167 29.0278V31.197C96.4167 31.5191 96.5342 31.8122 96.7704 32.0469C97.0061 32.2961 97.2865 32.4134 97.6256 32.4134H100.928C101.268 32.4134 101.563 32.2961 101.799 32.0469C102.034 31.8122 102.153 31.5191 102.153 31.197V29.3065Z" fill="#7A88A6"/>
<path d="M113.33 32.882C113.375 32.9115 113.419 32.9699 113.419 33.0433C113.433 33.1167 113.404 33.1607 113.36 33.2191C113.316 33.263 113.256 33.2925 113.183 33.2925H112.814C112.622 33.2925 112.445 33.2335 112.298 33.1312L110.455 31.6951C110.293 31.5927 110.115 31.5338 109.939 31.5338H106.916C106.871 31.5338 106.857 31.5633 106.857 31.5927V32.882C106.857 32.9849 106.813 33.0872 106.724 33.1607C106.636 33.2485 106.547 33.2925 106.415 33.2925H106.164C106.12 33.2925 106.09 33.278 106.06 33.2485C106.046 33.2335 106.031 33.2046 106.031 33.1607V31.1383C106.031 31.021 106.06 30.9186 106.149 30.8452C106.237 30.7573 106.326 30.7278 106.444 30.7278H112.15C112.283 30.7278 112.387 30.6694 112.475 30.5816C112.564 30.4932 112.608 30.3763 112.608 30.259C112.593 30.1416 112.549 30.0248 112.461 29.9219C112.357 29.8196 112.254 29.7606 112.136 29.7606H106.444C106.326 29.7606 106.237 29.7167 106.149 29.6433C106.06 29.5554 106.031 29.468 106.031 29.3502V29.0281C106.031 28.9841 106.046 28.9547 106.06 28.9257C106.09 28.8963 106.12 28.8818 106.164 28.8818H112.092C112.461 28.8818 112.77 29.0281 113.035 29.3212C113.316 29.6143 113.433 29.9514 113.419 30.3324C113.419 30.5666 113.345 30.7573 113.212 30.9476C113.094 31.1383 112.932 31.2701 112.726 31.3875C112.519 31.4898 112.298 31.5338 112.047 31.5338H111.679C111.664 31.5338 111.65 31.5338 111.634 31.5633C111.634 31.5777 111.634 31.5927 111.65 31.5927L113.33 32.882Z" fill="#7A88A6"/>
<path d="M115.852 33.2925C115.808 33.2925 115.778 33.278 115.763 33.2335C115.734 33.2046 115.749 33.1607 115.763 33.1312L118.683 29.2039C118.757 29.116 118.875 29.0281 119.007 28.9697C119.14 28.9257 119.273 28.8818 119.406 28.8818C119.494 28.8818 119.583 28.8963 119.671 28.9257C119.76 28.9402 119.848 28.9841 119.937 29.0281C120.01 29.0865 120.084 29.1454 120.128 29.2039L123.048 33.1312C123.078 33.1607 123.078 33.2046 123.062 33.2335C123.048 33.278 123.018 33.2925 122.959 33.2925H122.414C122.237 33.2925 122.075 33.2191 121.972 33.0728L119.465 29.7022C119.45 29.6877 119.435 29.6727 119.406 29.6727C119.391 29.6727 119.362 29.6877 119.347 29.7022L116.84 33.0728C116.737 33.2191 116.574 33.2925 116.398 33.2925H115.852Z" fill="#7A88A6"/>
<path d="M132.205 29.3065C132.205 29.1891 132.25 29.0868 132.338 29.0134C132.427 28.9255 132.515 28.8815 132.648 28.8815H132.898C132.928 28.8815 132.972 28.8965 133.002 28.9255C133.017 28.955 133.031 28.9839 133.031 29.0278V32.8823C133.031 32.9846 133.002 33.087 132.913 33.1604C132.825 33.2483 132.737 33.2922 132.618 33.2922H132.205C132.073 33.2922 131.925 33.2483 131.807 33.1749C131.542 32.9996 131.04 32.6771 130.333 32.2082C129.61 31.7243 128.858 31.2409 128.091 30.7426C127.324 30.2298 126.823 29.9072 126.572 29.7464C126.543 29.717 126.528 29.717 126.513 29.7314C126.484 29.7464 126.469 29.7754 126.469 29.7904V32.8823C126.469 32.9846 126.425 33.087 126.351 33.1604C126.263 33.2483 126.16 33.2922 126.042 33.2922H125.776C125.732 33.2922 125.702 33.2778 125.688 33.2483C125.658 33.2338 125.644 33.2044 125.644 33.1604V29.3065C125.644 29.1891 125.688 29.0868 125.776 29.0134C125.85 28.9255 125.953 28.8815 126.056 28.8815H126.44C126.602 28.8815 126.75 28.9255 126.867 29.0134L132.102 32.4424C132.132 32.4573 132.161 32.4573 132.176 32.4424C132.205 32.4279 132.205 32.4134 132.205 32.3839V29.3065Z" fill="#7A88A6"/>
<path d="M138.074 29.7611C137.735 29.7611 137.455 29.8785 137.219 30.1126C136.983 30.3618 136.865 30.6549 136.865 30.992V31.1972C136.865 31.5193 136.983 31.8124 137.219 32.0471C137.455 32.2963 137.735 32.4136 138.074 32.4136H143.014C143.059 32.4136 143.117 32.4136 143.177 32.4426C143.221 32.472 143.265 32.5015 143.309 32.5454C143.353 32.5744 143.368 32.6183 143.398 32.6623C143.427 32.7212 143.427 32.7796 143.427 32.8386V33.1606C143.427 33.2046 143.412 33.234 143.383 33.249C143.368 33.278 143.324 33.293 143.28 33.293H138.148C137.558 33.293 137.071 33.0877 136.659 32.6773C136.246 32.2668 136.039 31.7685 136.039 31.1827V30.992C136.039 30.4058 136.246 29.9074 136.659 29.4975C137.071 29.087 137.558 28.8818 138.148 28.8818H143.28C143.324 28.8818 143.368 28.8968 143.383 28.9257C143.412 28.9552 143.427 28.9846 143.427 29.0286V29.3506C143.427 29.468 143.383 29.5559 143.309 29.6438C143.221 29.7172 143.117 29.7611 143.014 29.7611H138.074Z" fill="#7A88A6"/>
<path d="M152.924 29.7611H147.998C147.659 29.7611 147.364 29.8785 147.129 30.1126C146.907 30.3618 146.775 30.6549 146.775 30.992V31.1972C146.775 31.5193 146.907 31.8124 147.129 32.0471C147.364 32.2963 147.659 32.4136 147.998 32.4136H152.924C152.982 32.4136 153.042 32.4136 153.086 32.4426C153.145 32.472 153.189 32.5015 153.233 32.5454C153.263 32.5744 153.292 32.6183 153.322 32.6623C153.336 32.7212 153.351 32.7796 153.351 32.8386V33.1606C153.351 33.2046 153.336 33.234 153.307 33.249C153.292 33.278 153.248 33.293 153.204 33.293H148.072C147.482 33.293 146.995 33.0877 146.583 32.6773C146.17 32.2668 145.949 31.7685 145.949 31.1827V30.992C145.949 30.4058 146.17 29.9074 146.583 29.4975C146.995 29.087 147.482 28.8818 148.072 28.8818H153.204C153.248 28.8818 153.292 28.8968 153.307 28.9257C153.336 28.9552 153.351 28.9846 153.351 29.0286V29.3506C153.351 29.468 153.307 29.5559 153.233 29.6438C153.145 29.7172 153.042 29.7611 152.924 29.7611ZM147.998 31.4609C147.895 31.4609 147.792 31.4169 147.718 31.344C147.63 31.2701 147.6 31.1678 147.6 31.0654C147.6 30.948 147.63 30.8602 147.733 30.7723C147.807 30.6844 147.91 30.6549 148.013 30.6549H152.393C152.422 30.6549 152.466 30.6694 152.481 30.6844C152.511 30.7133 152.525 30.7428 152.525 30.7868V31.0359C152.525 31.1533 152.481 31.2556 152.408 31.329C152.319 31.4169 152.23 31.4609 152.098 31.4609H147.998Z" fill="#7A88A6"/>
</svg>
